<?xml version="1.0" encoding="UTF-8" standalone="no"?><!DOCTYPE svg PUBLIC "-//W3C//DTD SVG 1.1//EN" "http://www.w3.org/Graphics/SVG/1.1/DTD/svg11.dtd"><svg width="100%" height="100%" viewBox="0 0 4167 4167" version="1.1" xmlns="http://www.w3.org/2000/svg" xmlns:xlink="http://www.w3.org/1999/xlink" xml:space="preserve" xmlns:serif="http://www.serif.com/" style="fill-rule:evenodd;clip-rule:evenodd;stroke-linejoin:round;stroke-miterlimit:2;"><path d="M4166.667,1041.667l0,2083.333c0,574.911 -466.755,1041.667 -1041.667,1041.667l-2083.333,0c-574.911,0 -1041.667,-466.755 -1041.667,-1041.667l0,-2083.333c0,-574.911 466.755,-1041.667 1041.667,-1041.667l2083.333,0c574.911,0 1041.667,466.755 1041.667,1041.667Z" style="fill:#faf8f7;"/><g id="Background"><path d="M1180.886,2129.084c81.784,-477.251 707.861,-451.469 810.068,-49.701c9.111,35.815 14.45,56.801 11.741,461.451c-0.304,45.423 -26.733,39.849 -119.562,39.193c-61.229,-0.433 -17.886,-103.486 -45.727,-79.991c-197.359,166.553 -514.504,97.155 -625.14,-150.212c-46.623,-104.243 -33.318,-197.503 -31.381,-220.741Z" style="fill:#272726;"/><path d="M2855.338,1829.32c2.83,-37.415 24.974,-34.839 110.782,-33.687c38.524,0.517 41.743,25.108 58.683,67.071c16.128,39.952 141.687,346.164 150.468,366.653c40.805,95.215 34.717,101.616 43.679,101.932c6.733,0.237 84.931,-200.371 162.934,-381.883c52.709,-122.652 49.89,-153.563 98.315,-153.809c79.061,-0.402 126.609,-9.606 97.051,62.876c-17.218,42.222 -89.85,211.126 -92.096,216.619c-76.563,187.174 -253.59,596.524 -275.964,648.26c-41.723,96.478 -39.038,109.504 -78.738,109.873c-70.01,0.65 -104.537,5.727 -109.261,-26.133c-2.836,-19.127 104.309,-252.718 116.276,-287.518c2.653,-7.715 -0.074,-7.695 -123.166,-304.026c-156.32,-376.322 -157.303,-375.864 -158.963,-386.228Z" style="fill:#272626;"/><path d="M617.116,1820.985c1.818,-56.106 29.866,-43.936 107.236,-44.941c24.283,-0.315 16.727,-25.427 16.763,-42.456c0.314,-150.308 -8.443,-190.788 33.771,-191.686c108.112,-2.3 108.757,4.431 116.211,14.081c15.308,19.819 2.668,203.809 7.938,214.378c7.849,15.742 148.669,-5.008 175.47,12.589c7.115,4.672 17.401,11.425 12.962,104.683c-0.366,7.68 -7.599,29.895 -34.389,30.373c-143.579,2.564 -152.954,-5.385 -154.547,11.295c-0.574,6.014 -0.346,343.671 -0.32,345.214c3.278,189.088 164.464,171.123 188.39,199.84c12.311,14.776 14.498,120.355 -1.536,135.631c-26.921,25.649 -215.807,-27.314 -285.421,-131.2c-79.5,-118.639 -55.182,-175.011 -58.481,-541.306c-0.239,-26.574 -18.783,-18.809 -84.255,-19.339c-48.489,-0.393 -40.299,-40.421 -39.793,-97.156Z" style="fill:#272726;"/><path d="M1332.949,2187.136c0.67,-14.152 -1.898,-85.712 46.11,-157.109c5.498,-8.176 37.915,-56.387 92.11,-82.32c230.725,-110.404 419.424,111.689 370.497,297.854c-75.423,286.984 -491.194,264.292 -508.717,-58.425Z" style="fill:#f9f8f7;"/><path d="M2641.627,2621.295c-27.073,-0.029 -99.709,11.579 -110.106,-55.424c-2.154,-13.883 -0.839,-738.907 -0.722,-803.16c0.462,-254.455 -7.12,-272.604 31.589,-294.111c11.772,-6.54 138.205,-38.004 142.981,56.924c0.56,11.127 0.178,846.042 0.144,919.611c-0.052,113.109 11.4,169.34 -63.887,176.161Z" style="fill:#ee9768;"/><path d="M2360.561,2262.043c-0.054,313.36 3.063,316.575 -14.369,336.647c-30.256,34.838 -122.363,31.404 -145.125,-1.133c-16.707,-23.881 -13.583,-26.023 -13.942,-264.78c-0.098,-65.238 -1.201,-799.043 0.34,-815.482c2.705,-28.853 26.74,-55.318 58.173,-56.795c106.388,-4.999 114.666,18.353 114.864,98.324c0.36,145.37 -0.16,593.825 0.058,703.219Z" style="fill:#ed9567;"/></g></svg>